<svg id="SINGLE_PAGE" data-name="SINGLE PAGE" xmlns="http://www.w3.org/2000/svg" viewBox="0 0 94.02 230.4"><defs><style>.cls-1{fill:red;}</style></defs><title>red_arrow_next_line</title><path class="cls-1" d="M1313.23,9269.39c14.1-15.4,23.58-34.88,28.15-55.22a126.33,126.33,0,0,0,2.5-15.44,129.45,129.45,0,0,0-.57-31.07,128.86,128.86,0,0,0-3-15.15c-.61-2.49-1.39-4.93-2.12-7.38s-1.62-4.85-2.59-7.22-1.94-4.7-2.92-7-2.15-4.6-3.37-6.82-2.44-4.43-3.69-6.62-2.63-4.26-4.11-6.27-3-4-4.47-6c-.78-1-1.62-1.9-2.41-2.86l-1.2-1.43-1.28-1.36c-13.53-14.58-30.41-25.72-50.78-28.1h-.06a3,3,0,0,1-.26-5.91,53.72,53.72,0,0,1,17.18-.55,65.71,65.71,0,0,1,16.69,4.78,83.07,83.07,0,0,1,27.54,20.34l1.45,1.57,1.36,1.64c.91,1.1,1.82,2.18,2.69,3.31,1.68,2.29,3.43,4.53,4.9,7s3,4.84,4.38,7.29c.68,1.24,1.29,2.5,1.94,3.75s1.25,2.52,1.81,3.8a119,119,0,0,1,5.89,15.72c.84,2.66,1.48,5.38,2.17,8.07s1.19,5.43,1.61,8.18a149,149,0,0,1,1.8,33c0,1.37-.16,2.74-.28,4.1s-.19,2.73-.38,4.09l-.46,4.08-.59,4.06a161.57,161.57,0,0,1-3.36,16,148,148,0,0,1-29.7,57.66,3,3,0,0,1-4.54-3.82A.76.76,0,0,1,1313.23,9269.39Z" transform="translate(-1258.65 -9064.48)"/><path class="cls-1" d="M1329.3,9283.24a26.82,26.82,0,0,0-8-.36,33.12,33.12,0,0,0-7.82,1.72,30.66,30.66,0,0,0-7.09,3.58,36.37,36.37,0,0,0-5.86,5.09,5.1,5.1,0,0,1-7.21.22,5,5,0,0,1-1.58-4.25l.22-2c.28-2.5.49-5,.8-7.45s.63-4.9,1-7.32a39.1,39.1,0,0,1,1.8-7.22,33.53,33.53,0,0,1,1.51-3.62c.31-.6.61-1.21,1-1.82l.14-.22c0-.07,0,0,.06,0l.07.13.2.47a4,4,0,0,0,.62,1,3.2,3.2,0,0,0,1.71,1,3.13,3.13,0,0,0,1.08.1,3.33,3.33,0,0,0,1.26-.35,3,3,0,0,0,1.31-1.32,2.74,2.74,0,0,0,.2-1.86c0-.07-.06-.24-.1-.36s-.09-.22-.2-.44a3.17,3.17,0,0,0-.38-.58,3.09,3.09,0,0,0-2-1,3.13,3.13,0,0,0-.92,0,2.43,2.43,0,0,0-.57.2c-.14.07-.27.15-.4.23a3,3,0,1,1,3.19,5,3.16,3.16,0,0,1-1.08.48,3.12,3.12,0,0,1-1,0,3.18,3.18,0,0,1-1.23-.4,3.09,3.09,0,0,1-.83-.7,3.18,3.18,0,0,1-.63-1.13,3.44,3.44,0,0,1-.12-.41,3.51,3.51,0,0,1,.29-2.33,3.44,3.44,0,0,1,2.85-1.87,3.86,3.86,0,0,1,1.2.11,4,4,0,0,1,2.1,1.32,4.75,4.75,0,0,1,.81,1.45,7.76,7.76,0,0,1,.27,1c0,.14,0,.26.06.38a2,2,0,0,0,.05.25l.11.26a20.31,20.31,0,0,1,.74,2.06,24.4,24.4,0,0,1,.83,4.15,28.62,28.62,0,0,1-.24,8.22,52.38,52.38,0,0,1-1.92,8,64.25,64.25,0,0,1-3.06,7.63l-8.56-6a54.15,54.15,0,0,1,8.86-3.53,83.77,83.77,0,0,1,9-2.21,72.23,72.23,0,0,1,9-1.09c3-.18,6-.16,9.06-.08h0a3,3,0,0,1-.16,6A3,3,0,0,1,1329.3,9283.24Z" transform="translate(-1258.65 -9064.48)"/></svg>